<?xml version="1.0" encoding="UTF-8" standalone="no"?>
<svg
   version="1.1"
   width="200"
   height="200"
   viewBox="0 0 200 200"
   id="svg10"
   sodipodi:docname="logo.svg"
   inkscape:version="1.4.2 (f4327f4, 2025-05-13)"
   xmlns:inkscape="http://www.inkscape.org/namespaces/inkscape"
   xmlns:sodipodi="http://sodipodi.sourceforge.net/DTD/sodipodi-0.dtd"
   xmlns="http://www.w3.org/2000/svg"
   xmlns:svg="http://www.w3.org/2000/svg">
  <defs
     id="defs10" />
  <sodipodi:namedview
     id="namedview10"
     pagecolor="#ffffff"
     bordercolor="#000000"
     borderopacity="0.25"
     inkscape:showpageshadow="2"
     inkscape:pageopacity="0.0"
     inkscape:pagecheckerboard="0"
     inkscape:deskcolor="#d1d1d1"
     inkscape:document-units="in"
     inkscape:zoom="4.1585064"
     inkscape:cx="83.082715"
     inkscape:cy="103.0418"
     inkscape:window-width="2560"
     inkscape:window-height="1369"
     inkscape:window-x="-8"
     inkscape:window-y="-8"
     inkscape:window-maximized="1"
     inkscape:current-layer="svg10" />
  <g
     id="Layer1000"
     transform="translate(-197.66713,-320.06684)">
    <path
       d="m 247.2483,389.7054 c 10.3014,0 17.9155,0.3064 22.8189,0.9431 4.9031,0.6128 8.7454,1.7441 11.5035,3.418 4.1488,2.4752 7.1428,6.0111 8.9813,10.5843 1.8389,4.5731 2.7581,10.8201 2.7581,18.6698 0,8.7457 -1.108,15.4168 -3.3239,19.9664 -1.603,3.4415 -3.7479,6.1526 -6.459,8.0855 -2.378,1.7105 -5.4212,2.9974 -9.1122,3.8753 l 19.8371,-0.091 5.7832,7.8729 h -96.7339 l 5.5632,-7.4817 18.8436,-0.0865 c -3.3698,-0.6486 -6.1991,-1.5999 -8.488,-2.8633 -4.3847,-2.3334 -7.5201,-5.7988 -9.406,-10.3719 -1.8856,-4.597 -2.8287,-11.0087 -2.8287,-19.2357 0,-9.2171 1.3675,-16.1946 4.0782,-20.933 2.7582,-4.8795 6.577,-8.1326 11.4566,-9.8061 4.8795,-1.6504 13.13,-2.4988 24.728,-2.5461 z m 1.6503,9.1227 c -6.8598,0 -12.0223,0.2594 -15.5347,0.7543 -3.4889,0.5188 -6.2705,1.438 -8.3449,2.7581 -2.4517,1.5795 -4.2197,4.0547 -5.3274,7.4257 -1.1081,3.3945 -1.6504,7.9911 -1.6504,13.8373 0,6.624 0.7308,11.5979 2.2162,14.8745 1.4615,3.3004 4.0073,5.6342 7.5903,7.0013 3.9603,1.5321 11.6688,2.2867 23.1253,2.2867 7.4489,0 12.9416,-0.2829 16.4775,-0.8251 3.5124,-0.5658 6.3176,-1.5795 8.392,-3.1116 2.2867,-1.603 3.9367,-4.0312 4.9269,-7.2372 0.9898,-3.2295 1.4851,-7.7553 1.4851,-13.6015 0,-6.9069 -0.7782,-11.9752 -2.3573,-15.1812 -1.7445,-3.6065 -4.644,-5.9873 -8.7222,-7.1895 -4.0782,-1.2025 -11.5036,-1.7918 -22.2764,-1.7918 z"
       style="fill:#b1c900;fill-rule:evenodd"
       id="path1" />
    <g
       id="Layer1001">
      <path
         d="m 235.1965,508.2894 h -9.237 l -4.7664,-21.4067 h -0.203 l -4.7157,21.4067 h -9.22 l -6.0426,-26.6125 h 6.2368 l 4.572,22.2517 h 0.1015 l 5.2228,-22.2517 h 7.9611 l 5.1129,22.2517 h 0.2111 l 4.5638,-22.2517 h 6.2283 z m 42.9066,-8.0034 v -13.6907 h -3.2961 v -4.9184 h 3.2961 v -6.0934 h 6.389 v 6.0934 h 10.2512 v 4.9184 h -10.2512 v 13.7922 c 0,0.9213 0.0675,1.6144 0.2027,2.079 0.1352,0.4648 0.3971,0.7945 0.7861,0.9805 0.3886,0.1941 0.9887,0.2871 1.7914,0.2871 2.1297,0 3.1947,-1.3181 3.1947,-3.9467 v -1.6733 h 5.637 c 0,3.8793 -0.5242,6.5498 -1.5721,8.0034 -1.2592,1.6563 -3.6845,2.4845 -7.251,2.4845 -1.6818,0 -3.1607,-0.1182 -4.4453,-0.3463 -1.2844,-0.2282 -2.2649,-0.7101 -2.9662,-1.4369 -1.1747,-1.1829 -1.7663,-3.3551 -1.7663,-6.5328 z m 35.5368,-30.0265 v 4.8676 h -1.8677 c -1.6563,0 -2.755,0.186 -3.2959,0.5579 -0.4563,0.2789 -0.7605,0.7098 -0.9294,1.2929 -0.1608,0.5834 -0.2452,1.3861 -0.2452,2.4086 v 2.2904 h 6.5497 v 4.9184 h -6.5497 v 21.6941 h -6.3383 v -21.6941 h -3.7522 v -4.9184 h 3.7522 v -2.5861 c 0,-3.5158 0.6931,-5.9074 2.0789,-7.158 1.2084,-1.1157 3.3551,-1.6733 6.4483,-1.6733 z m 15.2711,11.1047 c 1.5551,0 2.9413,0.0675 4.1412,0.1942 1.2087,0.1352 2.2986,0.3804 3.2876,0.7438 0.9802,0.3634 1.8337,0.879 2.5605,1.5466 1.1325,1.0987 1.8255,2.4761 2.0874,4.1241 0.2537,1.6563 0.4227,4.0312 0.4987,7.1328 0,2.7888 -0.1605,5.1214 -0.4901,7.0059 -0.3212,1.8762 -1.124,3.3465 -2.4086,4.4115 -1.1155,0.862 -2.4761,1.4281 -4.0819,1.6903 -1.6056,0.2619 -3.4988,0.3886 -5.696,0.3886 -1.6565,0 -3.1101,-0.0674 -4.3863,-0.2026 -1.2677,-0.1352 -2.4591,-0.4482 -3.5748,-0.9468 -1.1154,-0.4901 -1.9944,-1.2084 -2.6368,-2.1549 -1.2591,-1.8 -1.8844,-4.9609 -1.8844,-9.4822 0,-2.755 0.1267,-5.0621 0.3804,-6.9383 0.2449,-1.8678 0.8195,-3.3636 1.6985,-4.4706 1.6225,-2.0284 5.1213,-3.0424 10.5046,-3.0424 z m 0,4.8169 c -1.3351,0.0848 -2.3661,0.1945 -3.1014,0.3467 -0.7353,0.1437 -1.3521,0.5071 -1.8677,1.0732 -0.5156,0.5664 -0.845,1.4536 -0.9802,2.662 -0.127,1.2087 -0.1945,2.8228 -0.1945,4.851 0,1.8087 0.0508,3.2538 0.1605,4.344 0.1099,1.0903 0.3634,1.9605 0.7523,2.6028 0.4223,0.7268 1.0732,1.1917 1.9607,1.3862 0.8787,0.1941 1.9689,0.2871 3.2703,0.2871 1.175,0 2.1974,-0.0845 3.0595,-0.2449 0.862,-0.1607 1.5295,-0.5323 2.0114,-1.1157 0.4564,-0.6928 0.7435,-1.5381 0.8703,-2.5268 0.1269,-0.9973 0.1944,-2.5691 0.1944,-4.7327 0,-1.8675 -0.0589,-3.4141 -0.1774,-4.648 -0.1097,-1.2339 -0.4057,-2.1552 -0.8873,-2.7635 -0.4734,-0.6086 -1.0987,-0.9972 -1.8762,-1.158 -0.7776,-0.1604 -1.8423,-0.2786 -3.1947,-0.3634 z m 29.5112,-4.8169 c 1.5551,0 2.9413,0.0675 4.1412,0.1942 1.2087,0.1352 2.2986,0.3804 3.2876,0.7438 0.9802,0.3634 1.8337,0.879 2.5605,1.5466 1.1325,1.0987 1.8255,2.4761 2.0875,4.1241 0.2537,1.6563 0.4226,4.0312 0.4986,7.1328 0,2.7888 -0.1605,5.1214 -0.4901,7.0059 -0.3212,1.8762 -1.124,3.3465 -2.4086,4.4115 -1.1155,0.862 -2.4761,1.4281 -4.0819,1.6903 -1.6056,0.2619 -3.4988,0.3886 -5.696,0.3886 -1.6565,0 -3.1101,-0.0674 -4.3863,-0.2026 -1.2676,-0.1352 -2.459,-0.4482 -3.5748,-0.9468 -1.1154,-0.4901 -1.9944,-1.2084 -2.6368,-2.1549 -1.2591,-1.8 -1.8844,-4.9609 -1.8844,-9.4822 0,-2.755 0.1267,-5.0621 0.3804,-6.9383 0.2449,-1.8678 0.8195,-3.3636 1.6985,-4.4706 1.6226,-2.0284 5.1214,-3.0424 10.5046,-3.0424 z m 0,4.8169 c -1.3351,0.0848 -2.366,0.1945 -3.1013,0.3467 -0.7354,0.1437 -1.3522,0.5071 -1.8678,1.0732 -0.5156,0.5664 -0.845,1.4536 -0.9802,2.662 -0.127,1.2087 -0.1945,2.8228 -0.1945,4.851 0,1.8087 0.0508,3.2538 0.1605,4.344 0.11,1.0903 0.3634,1.9605 0.7523,2.6028 0.4223,0.7268 1.0732,1.1917 1.9607,1.3862 0.8787,0.1941 1.969,0.2871 3.2703,0.2871 1.175,0 2.1975,-0.0845 3.0595,-0.2449 0.862,-0.1607 1.5295,-0.5323 2.0114,-1.1157 0.4564,-0.6928 0.7436,-1.5381 0.8703,-2.5268 0.127,-0.9973 0.1944,-2.5691 0.1944,-4.7327 0,-1.8675 -0.0589,-3.4141 -0.1774,-4.648 -0.1097,-1.2339 -0.4057,-2.1552 -0.8873,-2.7635 -0.4734,-0.6086 -1.0987,-0.9972 -1.8762,-1.158 -0.7776,-0.1604 -1.8423,-0.2786 -3.1947,-0.3634 z m 17.9419,14.1049 v -13.6907 h -3.2961 v -4.9184 h 3.2961 v -6.0934 h 6.389 v 6.0934 h 10.2512 v 4.9184 h -10.2512 v 13.7922 c 0,0.9213 0.0675,1.6144 0.2027,2.079 0.1352,0.4648 0.3971,0.7945 0.7861,0.9805 0.3886,0.1941 0.9887,0.2871 1.7915,0.2871 2.1296,0 3.1946,-1.3181 3.1946,-3.9467 v -1.6733 h 5.637 c 0,3.8793 -0.5241,6.5498 -1.5721,8.0034 -1.2592,1.6563 -3.6845,2.4845 -7.251,2.4845 -1.6818,0 -3.1607,-0.1182 -4.4453,-0.3463 -1.2844,-0.2282 -2.2649,-0.7101 -2.9662,-1.4369 -1.1747,-1.1829 -1.7663,-3.3551 -1.7663,-6.5328 z"
         style="fill:#6e7071;fill-rule:evenodd"
         id="path2" />
      <path
         d="m 244.1211,470.2595 h 6.3383 v 5.4255 h -6.3383 z m 0,11.4174 h 6.3383 v 26.6125 h -6.3383 z m 12.3809,18.6091 v -13.6907 h -3.2961 v -4.9184 h 3.2961 v -6.0934 h 6.389 v 6.0934 h 10.2512 v 4.9184 H 262.891 v 13.7922 c 0,0.9213 0.0675,1.6144 0.2027,2.079 0.1352,0.4648 0.3971,0.7945 0.786,0.9805 0.3886,0.1941 0.9887,0.2871 1.7915,0.2871 2.1297,0 3.1947,-1.3181 3.1947,-3.9467 v -1.6733 h 5.6369 c 0,3.8793 -0.5241,6.5498 -1.5721,8.0034 -1.2591,1.6563 -3.6844,2.4845 -7.251,2.4845 -1.6818,0 -3.1606,-0.1182 -4.4453,-0.3463 -1.2844,-0.2282 -2.2649,-0.7101 -2.9661,-1.4369 -1.1747,-1.1829 -1.7663,-3.3551 -1.7663,-6.5328 z"
         style="fill:#b1c900;fill-rule:evenodd"
         id="path3" />
    </g>
    <path
       d="m 346.3319,376.1218 c 10.4882,0 18.2401,0.3121 23.2319,0.9601 4.9921,0.6239 8.9042,1.7759 11.7122,3.4801 4.2239,2.52 7.2717,6.1197 9.1437,10.7759 1.872,4.6559 2.808,11.016 2.808,19.0077 0,8.9042 -1.1279,15.696 -3.384,20.3281 -1.6319,3.5039 -3.816,6.264 -6.5758,8.2318 -2.736,1.9681 -6.336,3.384 -10.7759,4.2721 -3.8174,0.7849 -9.8663,1.2313 -18.1437,1.3249 v 10.6534 h 25.8599 l -5.5378,7.8157 h -51.0273 l -5.79,-7.8157 h 27.0521 V 444.473 c -6.5117,-0.11 -11.6393,-0.4099 -15.3731,-0.9113 -4.824,-0.6242 -8.7361,-1.7521 -11.736,-3.4081 -4.464,-2.376 -7.6558,-5.904 -9.576,-10.5599 -1.9199,-4.68 -2.88,-11.2079 -2.88,-19.584 0,-9.3838 1.3921,-16.488 4.1522,-21.312 2.808,-4.968 6.6957,-8.2797 11.6637,-9.9839 4.968,-1.6798 13.3682,-2.5438 25.1759,-2.592 z m 1.6801,9.288 c -6.984,0 -12.24,0.2639 -15.8159,0.7679 -3.5521,0.5281 -6.3839,1.4641 -8.496,2.808 -2.4959,1.6081 -4.2959,4.1281 -5.4241,7.56 -1.1279,3.456 -1.6798,8.136 -1.6798,14.0879 0,6.7442 0.7438,11.808 2.2558,15.1441 1.4882,3.3599 4.0802,5.7359 7.7281,7.128 4.032,1.5599 11.88,2.3278 23.544,2.3278 7.5838,0 13.1757,-0.288 16.7757,-0.8399 3.5762,-0.576 6.4321,-1.6081 8.5442,-3.168 2.3278,-1.6319 4.0079,-4.104 5.0159,-7.3678 1.008,-3.2882 1.512,-7.8962 1.512,-13.8481 0,-7.0319 -0.792,-12.1918 -2.4001,-15.4559 -1.7759,-3.672 -4.7279,-6.0959 -8.8798,-7.3199 -4.1522,-1.224 -11.7119,-1.8241 -22.68,-1.8241 z"
       style="fill:#6e7071;fill-rule:evenodd"
       id="path4" />
    <path
       d="m 269.7316,454.3243 c -1.3638,0 -2.4696,-1.1058 -2.4696,-2.4696 0,-1.3635 1.1058,-2.4693 2.4696,-2.4693 1.3634,0 2.4692,1.1058 2.4692,2.4693 0,1.3638 -1.1058,2.4696 -2.4692,2.4696 z"
       style="fill:#ffffff;fill-rule:evenodd"
       id="path5" />
    <path
       d="m 368.411,441.6381 c -1.3638,0 -2.4696,-1.1058 -2.4696,-2.4696 0,-1.3634 1.1058,-2.4692 2.4696,-2.4692 1.3634,0 2.4692,1.1058 2.4692,2.4692 0,1.3638 -1.1058,2.4696 -2.4692,2.4696 z"
       style="fill:#ffffff;fill-rule:evenodd"
       id="path6" />
    <path
       d="m 259.626,455.4292 c -1.3637,0 -2.4695,-1.1058 -2.4695,-2.4695 0,-1.3635 1.1058,-2.4693 2.4695,-2.4693 1.3635,0 2.4693,1.1058 2.4693,2.4693 0,1.3637 -1.1058,2.4695 -2.4693,2.4695 z"
       style="fill:#ffffff;fill-rule:evenodd"
       id="path7" />
    <path
       d="m 250.0569,455.4425 c -1.3638,0 -2.4696,-1.1058 -2.4696,-2.4692 0,-1.3638 1.1058,-2.4696 2.4696,-2.4696 1.3634,0 2.4692,1.1058 2.4692,2.4696 0,1.3634 -1.1058,2.4692 -2.4692,2.4692 z"
       style="fill:#ffffff;fill-rule:evenodd"
       id="path8" />
    <path
       d="m 270.9272,360.7302 c 0,-6.1373 0.1571,-10.6736 0.4833,-13.5947 0.3141,-2.9211 0.8938,-5.2103 1.7515,-6.8536 1.2683,-2.4718 3.0805,-4.2553 5.4236,-5.3507 2.3434,-1.0955 5.5445,-1.6432 9.5669,-1.6432 4.4816,0 7.8999,0.6602 10.2314,1.9803 1.7634,0.955 3.1527,2.2328 4.1431,3.848 0.9904,1.601 1.703,3.7077 2.1501,6.3057 0.447,2.5279 0.6763,6.7272 0.6763,12.5977 0,5.5332 -0.1567,9.7186 -0.483,12.5413 -0.3141,2.8228 -0.8816,5.112 -1.7153,6.8675 -1.1959,2.6124 -2.9715,4.4802 -5.3149,5.6038 -2.3556,1.1234 -5.641,1.6852 -9.8566,1.6852 -4.7231,0 -8.2987,-0.8146 -10.7266,-2.4295 -2.5005,-1.6433 -4.1672,-3.9184 -5.025,-6.8256 -0.8456,-2.9072 -1.2804,-7.8225 -1.3048,-14.7322 z m 4.6749,-0.9831 c 0,4.0868 0.133,7.1623 0.3864,9.2552 0.2659,2.0783 0.737,3.7355 1.4133,4.9714 0.8096,1.4607 2.0778,2.514 3.8053,3.1739 1.7393,0.6602 4.0946,0.9834 7.0903,0.9834 3.3944,0 5.9431,-0.4354 7.6223,-1.3204 1.6909,-0.8705 2.8868,-2.3874 3.5875,-4.5221 0.7852,-2.3593 1.1716,-6.952 1.1716,-13.7773 0,-4.4379 -0.1448,-7.7102 -0.4229,-9.8169 -0.2897,-2.0925 -0.809,-3.7638 -1.5945,-4.9997 -0.8212,-1.3621 -2.0653,-2.3454 -3.7083,-2.935 -1.6546,-0.5899 -3.9739,-0.885 -6.9695,-0.885 -3.5394,0 -6.1365,0.4634 -7.7794,1.4045 -1.8479,1.0392 -3.068,2.7667 -3.6842,5.1962 -0.6157,2.4296 -0.9179,6.8536 -0.9179,13.2718 z"
       style="fill:#f07c00;fill-rule:evenodd"
       id="path9" />
    <path
       d="m 288.4272,383.2537 c -0.915,0 -1.6572,-0.7421 -1.6572,-1.6571 0,-0.915 0.7422,-1.6571 1.6572,-1.6571 0.915,0 1.6571,0.7421 1.6571,1.6571 0,0.915 -0.7421,1.6571 -1.6571,1.6571 z"
       style="fill:#ffffff;fill-rule:evenodd"
       id="path10" />
  </g>
</svg>
